<svg width="44" height="44" viewBox="0 0 44 44" fill="none" xmlns="http://www.w3.org/2000/svg">
<circle cx="22" cy="22" r="22" fill="#1649FF"/>
<path d="M30.9272 13.8738C33.8257 18.1355 35.2572 22.9425 34.722 28.4765C34.7198 28.4999 34.7076 28.5214 34.6884 28.5356C32.4934 30.1473 30.3667 31.1255 28.2699 31.7742C28.2535 31.7791 28.2361 31.7788 28.2199 31.7734C28.2037 31.7679 28.1897 31.7575 28.1797 31.7437C27.6953 31.0697 27.2551 30.3591 26.8695 29.6128C26.8474 29.5689 26.8676 29.516 26.9131 29.4986C27.6122 29.2352 28.2769 28.9196 28.9163 28.5458C28.9667 28.5163 28.9699 28.4441 28.9234 28.4095C28.7877 28.3087 28.6532 28.2029 28.5246 28.097C28.5005 28.0774 28.4681 28.0736 28.4409 28.0867C24.2899 30.0036 19.7427 30.0036 15.5426 28.0867C15.5153 28.0745 15.4829 28.0787 15.4595 28.098C15.3312 28.2038 15.1964 28.3087 15.062 28.4095C15.0155 28.4441 15.0193 28.5163 15.07 28.5458C15.7094 28.9125 16.3741 29.2352 17.0722 29.4999C17.1175 29.5172 17.139 29.5689 17.1165 29.6128C16.7392 30.36 16.2991 31.0706 15.8057 31.7446C15.7842 31.7719 15.7489 31.7844 15.7155 31.7742C13.6286 31.1255 11.502 30.1473 9.30696 28.5356C9.28868 28.5214 9.27552 28.499 9.2736 28.4756C8.82638 23.6887 9.73781 18.8419 13.065 13.8728C13.073 13.8597 13.0852 13.8494 13.0993 13.8433C14.7364 13.092 16.4903 12.5392 18.3234 12.2235C18.3568 12.2184 18.3901 12.2338 18.4074 12.2633C18.6339 12.6643 18.8928 13.1786 19.068 13.5988C21.0003 13.3037 22.9627 13.3037 24.9353 13.5988C25.1105 13.1876 25.3604 12.6643 25.5859 12.2633C25.594 12.2487 25.6064 12.2369 25.6215 12.2298C25.6366 12.2226 25.6536 12.2204 25.67 12.2235C27.5041 12.5402 29.258 13.0929 30.8938 13.8433C30.9082 13.8494 30.9201 13.8597 30.9272 13.8738ZM20.0503 22.9752C20.0705 21.5601 19.0388 20.3892 17.7437 20.3892C16.4592 20.3892 15.4374 21.5499 15.4374 22.9752C15.4374 24.4003 16.4794 25.561 17.7437 25.561C19.0285 25.561 20.0503 24.4003 20.0503 22.9752ZM28.5782 22.9752C28.5984 21.5601 27.5666 20.3892 26.2718 20.3892C24.987 20.3892 23.9652 21.5499 23.9652 22.9752C23.9652 24.4003 25.0072 25.561 26.2718 25.561C27.5666 25.561 28.5782 24.4003 28.5782 22.9752Z" fill="white"/>
</svg>
