<svg width="44" height="44" viewBox="0 0 44 44" fill="none" xmlns="http://www.w3.org/2000/svg">
<circle cx="22" cy="22" r="22" fill="#1649FF"/>
<path fill-rule="evenodd" clip-rule="evenodd" d="M22 8.09229C14.1216 8.09229 7.74046 14.4734 7.74046 22.3518C7.74046 28.6617 11.8223 33.9912 17.4904 35.8806C18.2034 36.0053 18.4708 35.5775 18.4708 35.2032C18.4708 34.8646 18.4529 33.7416 18.4529 32.5474C14.8702 33.2069 13.9434 31.674 13.6582 30.8719C13.4977 30.4619 12.8026 29.1964 12.1966 28.8577C11.6975 28.5904 10.9845 27.9309 12.1787 27.913C13.3017 27.8952 14.1038 28.9469 14.3711 29.3746C15.6545 31.5314 17.7043 30.9254 18.5242 30.5511C18.649 29.6242 19.0233 29.0003 19.4333 28.6438C16.2605 28.2873 12.9452 27.0575 12.9452 21.6032C12.9452 20.0525 13.4977 18.7691 14.4068 17.7709C14.2642 17.4145 13.7651 15.9529 14.5494 13.9922C14.5494 13.9922 15.7436 13.6179 18.4708 15.4538C19.6115 15.1329 20.8236 14.9725 22.0356 14.9725C23.2477 14.9725 24.4598 15.1329 25.6005 15.4538C28.3277 13.6 29.5219 13.9922 29.5219 13.9922C30.3062 15.9529 29.8071 17.4145 29.6645 17.7709C30.5735 18.7691 31.1261 20.0346 31.1261 21.6032C31.1261 27.0753 27.7929 28.2873 24.6202 28.6438C25.1371 29.0894 25.5827 29.945 25.5827 31.2819C25.5827 33.1891 25.5649 34.722 25.5649 35.2032C25.5649 35.5775 25.8322 36.0231 26.5452 35.8806C29.376 34.9249 31.8358 33.1056 33.5784 30.6787C35.3211 28.2518 36.2588 25.3396 36.2595 22.3518C36.2595 14.4734 29.8784 8.09229 22 8.09229Z" fill="white"/>
</svg>
