<?xml version="1.0" encoding="UTF-8"?>
<svg width="30px" height="30px" viewBox="0 0 30 30" version="1.1" xmlns="http://www.w3.org/2000/svg" xmlns:xlink="http://www.w3.org/1999/xlink">
    <title>photo 5</title>
    <defs>
        <circle id="path-1" cx="15" cy="15" r="15"></circle>
    </defs>
    <g id="页面-1" stroke="none" stroke-width="1" fill="none" fill-rule="evenodd">
        <g id="photo">
            <mask id="mask-2" fill="white">
                <use xlink:href="#path-1"></use>
            </mask>
            <use id="蒙版" fill="#1649FF" xlink:href="#path-1"></use>
            <g id="编组" mask="url(#mask-2)" fill="#FFFFFF">
                <g transform="translate(6.000000, 4.000000)">
                    <rect id="矩形" x="3.49206349" y="10.4761905" width="1.9047619" height="6.66666667" rx="0.5"></rect>
                    <rect id="矩形" x="6.34920635" y="10.4761905" width="1.9047619" height="6.66666667" rx="0.5"></rect>
                    <rect id="矩形" x="9.52380952" y="10.4761905" width="1.9047619" height="6.66666667" rx="0.5"></rect>
                    <rect id="矩形" x="12.3809524" y="10.4761905" width="1.9047619" height="6.66666667" rx="0.5"></rect>
                    <rect id="矩形" x="2.22222222" y="17.4603175" width="13.3333333" height="1" rx="0.5"></rect>
                    <rect id="矩形" x="2.22222222" y="8.88888889" width="13.3333333" height="1" rx="0.5"></rect>
                    <rect id="矩形" x="8.57142857" y="0" width="1" height="2.85714286" rx="0.5"></rect>
                    <rect id="矩形" x="0" y="18.7301587" width="17.7777778" height="1.26984127" rx="0.5"></rect>
                    <path d="M14.6031746,8.21644186 C14.6031746,5.08125426 12.0448017,2.53968254 8.88888889,2.53968254 C5.73297603,2.53968254 3.17460317,5.08125426 3.17460317,8.21644186 C3.17460317,8.27545026 14.6031746,8.25662624 14.6031746,8.21644186 Z" id="椭圆形"></path>
                </g>
            </g>
        </g>
    </g>
</svg>