<?xml version="1.0" encoding="UTF-8"?>
<svg width="30px" height="30px" viewBox="0 0 30 30" version="1.1" xmlns="http://www.w3.org/2000/svg" xmlns:xlink="http://www.w3.org/1999/xlink">
    <title>home-1</title>
    <defs>
        <circle id="path-1" cx="15" cy="15" r="15"></circle>
    </defs>
    <g id="页面-1" stroke="none" stroke-width="1" fill="none" fill-rule="evenodd">
        <g id="home-1">
            <mask id="mask-2" fill="white">
                <use xlink:href="#path-1"></use>
            </mask>
            <use id="蒙版" fill="#1649FF" xlink:href="#path-1"></use>
            <path d="M24.8304032,12.2133575 L16.1982032,5.3934575 C15.5306032,4.8688475 14.4813032,4.8688475 13.8137032,5.3934575 L5.18147316,12.2133575 C5.03839316,12.3564575 4.94301316,12.5471575 5.03839316,12.7379575 C5.13377316,12.9287575 5.27685316,13.0718575 5.46762316,13.0718575 L6.46914316,13.0718575 L6.46914316,21.4655575 C6.46914316,22.4193575 7.18452316,23.0870575 8.13835316,23.0870575 L13.1460032,23.0870575 C13.4321032,23.0870575 13.6229032,22.8962575 13.6229032,22.6101575 L13.6229032,19.1763575 C13.6229032,18.4609575 14.2429032,17.8409575 15.0059032,17.8409575 L15.1013032,17.8409575 C15.8644032,17.8409575 16.4844032,18.4609575 16.4844032,19.1763575 L16.4844032,22.6101575 C16.4844032,22.8962575 16.6752032,23.0870575 16.9613032,23.0870575 L22.0166032,23.0870575 C22.9705032,23.0870575 23.5904032,22.4193575 23.5904032,21.4655575 L23.5904032,13.0718575 L24.5443032,13.0718575 C24.7350032,13.0718575 24.9258032,12.9287575 24.9735032,12.7379575 C25.0212032,12.5471575 25.0212032,12.3564575 24.8304032,12.2133575 Z" id="路径" fill="#FFFFFF" fill-rule="nonzero" mask="url(#mask-2)"></path>
        </g>
    </g>
</svg>