<?xml version="1.0" encoding="UTF-8"?>
<svg width="44px" height="44px" viewBox="0 0 44 44" version="1.1" xmlns="http://www.w3.org/2000/svg" xmlns:xlink="http://www.w3.org/1999/xlink">
    <title>discord-icon</title>
    <g id="页面-1" stroke="none" stroke-width="1" fill="none" fill-rule="evenodd">
        <g id="discord-icon" fill-rule="nonzero">
            <circle id="椭圆形" fill="#1649FF" cx="22" cy="22" r="22"></circle>
            <g id="medium" transform="translate(9.000000, 12.000000)" fill="#FFFFFF">
                <path d="M26,0.443371518 L26,0 L18.8127604,0 L13.690625,13.0055646 L7.86432291,0 L0.328385408,0 L0.328385408,0.443371518 L2.75234376,3.41980358 C2.98932292,3.63977086 3.11119793,3.96284777 3.08072917,4.28592469 L3.08072917,15.9819967 C3.15520834,16.4047463 3.02317709,16.8343699 2.73203127,17.1402619 L0,20.5188216 L0,20.9553192 L7.7390625,20.9553192 L7.7390625,20.5119476 L5.01041666,17.1436988 C4.71407049,16.8382452 4.57509817,16.4098928 4.63463542,15.9854337 L4.63463542,5.86693944 L11.4291667,20.9621931 L12.2179688,20.9621931 L18.0611979,5.86693944 L18.0611979,17.8929623 C18.0611979,18.2091653 18.0611979,18.2744681 17.8580729,18.4841244 L15.7557292,20.5566285 L15.7557292,21 L25.9526042,21 L25.9526042,20.5566285 L23.9247396,18.5322422 C23.7486979,18.3947627 23.6572917,18.1644845 23.6945312,17.9410802 L23.6945312,3.05891978 C23.6588205,2.8339323 23.7471415,2.60712916 23.9247396,2.46775775 L26,0.443371518 Z" id="路径"></path>
            </g>
        </g>
    </g>
</svg>