<?xml version="1.0" encoding="UTF-8"?>
<svg width="30px" height="30px" viewBox="0 0 30 30" version="1.1" xmlns="http://www.w3.org/2000/svg" xmlns:xlink="http://www.w3.org/1999/xlink">
    <title>Mining_2</title>
    <defs>
        <circle id="path-1" cx="15" cy="15" r="15"></circle>
    </defs>
    <g id="页面-1" stroke="none" stroke-width="1" fill="none" fill-rule="evenodd">
        <g id="Mining_2">
            <mask id="mask-2" fill="white">
                <use xlink:href="#path-1"></use>
            </mask>
            <use id="蒙版" fill="#1649FF" xlink:href="#path-1"></use>
            <g id="挖矿" mask="url(#mask-2)" fill="#FFFFFF" fill-rule="nonzero">
                <g transform="translate(6.000000, 6.000000)">
                    <path d="M11.845909,11.3205958 C11.9310111,11.3205958 12,11.248828 12,11.1602979 C12,11.0717678 11.9310111,11 11.845909,11 L4.15409102,11 C4.0689889,11 4,11.0717678 4,11.1602979 C4,11.248828 4.0689889,11.3205958 4.15409102,11.3205958 L11.845909,11.3205958 Z M4.24525386,12.0433761 L11.7547461,12.0433761 C11.8398483,12.0433761 11.9088372,11.9716083 11.9088372,11.8830782 C11.9088372,11.7945481 11.8398483,11.7227803 11.7547461,11.7227803 L4.24525386,11.7227803 C4.16015174,11.7227803 4.09116283,11.7945481 4.09116283,11.8830782 C4.09116283,11.9716083 4.16015174,12.0433761 4.24525386,12.0433761 Z M11.8176743,12.6060505 C11.8176743,12.5175954 11.7487979,12.4458586 11.6637678,12.4457526 L9.26991304,12.4457526 C9.21362321,12.4437253 9.1607548,12.4738084 9.13203221,12.5242095 C9.10330962,12.5746106 9.10330962,12.6372985 9.13203221,12.6876996 C9.1607548,12.7381007 9.21362321,12.7681838 9.26991304,12.7661564 L11.6637678,12.7661564 C11.7045864,12.7661564 11.7437331,12.7492882 11.7725962,12.7192625 C11.8014592,12.6892368 11.8176743,12.6485132 11.8176743,12.6060505 L11.8176743,12.6060505 Z M4.33623215,12.7661564 L6.72971788,12.7661564 C6.78600771,12.7681838 6.83887612,12.7381007 6.86759871,12.6876996 C6.8963213,12.6372985 6.8963213,12.5746106 6.86759871,12.5242095 C6.83887612,12.4738084 6.78600771,12.4437253 6.72971788,12.4457526 L4.33623215,12.4457526 C4.27994233,12.4437253 4.22707392,12.4738084 4.19835133,12.5242095 C4.16962874,12.5746106 4.16962874,12.6372985 4.19835133,12.6876996 C4.22707392,12.7381007 4.27994233,12.7681838 4.33623215,12.7661564 Z M10.2706743,13.1685329 C10.1855721,13.1685329 10.1165832,13.2403008 10.1165832,13.3288308 C10.1165832,13.4173609 10.1855721,13.4891287 10.2706743,13.4891287 L11.5727896,13.4891287 C11.6578917,13.4891287 11.7268806,13.4173609 11.7268806,13.3288308 C11.7268806,13.2403008 11.6578917,13.1685329 11.5727896,13.1685329 L10.2706743,13.1685329 Z M4.42739499,13.4891287 L5.77084727,13.4891287 C5.85594939,13.4891287 5.92493829,13.4173609 5.92493829,13.3288308 C5.92493829,13.2403008 5.85594939,13.1685329 5.77084727,13.1685329 L4.42739499,13.1685329 C4.34229286,13.1685329 4.27330396,13.2403008 4.27330396,13.3288308 C4.27330396,13.4173609 4.34229286,13.4891287 4.42739499,13.4891287 L4.42739499,13.4891287 Z M11.6325806,14.0516112 C11.6324787,13.9631561 11.5635196,13.8915052 11.4784895,13.8915052 L10.7824041,13.8915052 C10.6994269,13.8944938 10.6336448,13.9653359 10.6336448,14.0517072 C10.6336448,14.1380784 10.6994269,14.2089205 10.7824041,14.2119091 L11.4784895,14.2119091 C11.5635917,14.2119091 11.6325806,14.1401412 11.6325806,14.0516112 L11.6325806,14.0516112 Z M5.2175959,13.8915052 L4.51837328,13.8915052 C4.46208345,13.8894779 4.40921505,13.919561 4.38049246,13.9699621 C4.35176986,14.0203632 4.35176986,14.0830511 4.38049246,14.1334522 C4.40921505,14.1838533 4.46208345,14.2139364 4.51837328,14.2119091 L5.2175959,14.2119091 C5.27388573,14.2139364 5.32675413,14.1838533 5.35547673,14.1334522 C5.38419932,14.0830511 5.38419932,14.0203632 5.35547673,13.9699621 C5.32675413,13.919561 5.27388573,13.8894779 5.2175959,13.8915052 Z M11.0597679,14.6142856 C10.9746658,14.6142856 10.9056769,14.6860534 10.9056769,14.7745835 C10.9056769,14.8631135 10.9746658,14.9348814 11.0597679,14.9348814 L11.3904639,14.9348814 C11.475566,14.9348814 11.5445549,14.8631135 11.5445549,14.7745835 C11.5445549,14.6860534 11.475566,14.6142856 11.3904639,14.6142856 L11.0597679,14.6142856 Z M4.61562594,14.6142856 C4.53052381,14.6142856 4.46153491,14.6860534 4.46153491,14.7745835 C4.46153491,14.8631135 4.53052381,14.9348814 4.61562594,14.9348814 L4.94060114,14.9348814 C5.02570326,14.9348814 5.09469216,14.8631135 5.09469216,14.7745835 C5.09469216,14.6860534 5.02570326,14.6142856 4.94060114,14.6142856 L4.61562594,14.6142856 Z M8.00083043,13.2474339 C7.07682496,13.2470458 6.24360241,13.8257954 5.88977666,14.7137549 C5.5359509,15.6017144 5.73122044,16.6239687 6.38451183,17.3037398 C7.03780321,17.9835109 8.02042759,18.1868938 8.87409029,17.819031 C9.72775298,17.4511683 10.2842949,16.5845234 10.2841457,15.6232984 C10.2826211,14.3120271 9.26132786,13.2493379 8.00083043,13.2474339 L8.00083043,13.2474339 Z M8.00083043,17.3585471 C7.07968914,17.3584411 6.3330392,16.5815438 6.33314112,15.6232984 C6.33324305,14.6650531 7.08005822,13.8883277 8.00119952,13.8884337 C8.92234081,13.8885397 9.66899075,14.665437 9.66888884,15.6236824 C9.66766808,16.5813829 8.92144845,17.3573171 8.00083043,17.3581632 L8.00083043,17.3585471 Z" id="形状"></path>
                    <path d="M13.6866589,8.08745706 L12.9289494,8.08745706 C12.9179164,8.06205675 12.9036546,8.03824684 12.8865312,8.01664013 L9.78024108,4.11826355 C9.72237076,4.04548061 9.63606673,4.00229763 9.54420387,4.00007701 C9.45234101,3.99802284 9.36419537,4.03714688 9.30312994,4.10716252 L7.76180946,5.87012141 L5.91154918,4.88232086 C5.78286431,4.8139376 5.62499564,4.84431524 5.5295975,4.95581736 L2.87695717,8.08745706 L1.9760392,8.08745706 L1.49573731,4.35157664 C1.47512376,4.19257031 1.34220486,4.07372435 1.18492061,4.07366802 L0.305774828,4.07366802 C0.135703124,4.07791288 0,4.21972388 0,4.39320552 C0,4.56668715 0.135703124,4.70849816 0.305774828,4.71274301 L0.90995294,4.71274301 L1.38987945,8.44747505 C1.38996726,8.4478526 1.38996726,8.44824587 1.38987945,8.44862343 L2.32476953,15.7217141 C2.32597038,15.7315567 2.32766179,15.7413306 2.32983719,15.7509978 C2.34000938,15.7969401 2.36014775,15.8399742 2.38877224,15.8769371 L2.39064916,15.8796167 C2.39477836,15.8849758 2.39928295,15.8899521 2.40397523,15.8951198 C2.40566446,15.8970338 2.40716599,15.8991392 2.4090429,15.9010532 C2.41091981,15.9029671 2.41655055,15.9085176 2.42049206,15.9121542 C2.42443358,15.9157907 2.4261228,15.9178961 2.42912586,15.9205757 C2.43212892,15.9232552 2.43531967,15.925552 2.43832273,15.9280401 C2.44132579,15.9305283 2.44658115,15.9351218 2.45089804,15.9383756 L2.45784262,15.9429691 C2.46309798,15.9467971 2.46854102,15.950625 2.47398407,15.9538788 L2.47942711,15.9569411 C2.48562092,15.9605777 2.49200243,15.9642142 2.49819624,15.967468 L2.50420236,15.9701475 C2.51058386,15.9732099 2.51715305,15.9760808 2.52297148,15.9787604 L2.53442065,15.9825883 C2.53930062,15.9843109 2.54436828,15.9862249 2.54943595,15.9875647 C2.57696956,15.9955567 2.60545738,15.9996147 2.6340847,15.9996227 L4.47345888,15.9996227 C4.5872366,16.0024625 4.69358384,15.9421877 4.75129182,15.8421544 C4.8089998,15.7421211 4.8089998,15.6180493 4.75129182,15.518016 C4.69358384,15.4179827 4.5872366,15.3577079 4.47345888,15.3605477 L2.9105539,15.3605477 L2.82815744,14.7189845 L2.28910819,10.5254736 L13.0986223,10.5254736 L12.4769889,15.3607391 L10.9137085,15.3607391 C10.7999308,15.3578993 10.6935835,15.4181741 10.6358756,15.5182074 C10.5781676,15.6182407 10.5781676,15.7423125 10.6358756,15.8423458 C10.6935835,15.9423791 10.7999308,16.0026539 10.9137085,15.9999102 L12.7530827,15.9999102 C12.9099289,15.999255 13.0421935,15.880492 13.0625855,15.7219054 L13.9972879,8.44881483 C14.009141,8.35755176 13.9817834,8.26551333 13.922236,8.19631978 C13.8626886,8.12712623 13.7767487,8.08751382 13.6864712,8.08764846 L13.6866589,8.08745706 Z M9.52610714,4.81265231 L12.1350154,8.08745706 L6.66325261,8.08745706 L9.52610714,4.81265231 Z M5.84135266,5.56618278 L7.33162113,6.36220341 L5.89484466,8.00573049 C5.87356567,8.03013823 5.85603653,8.05769322 5.84285419,8.08745706 L3.70505093,8.08745706 L5.84135266,5.56618278 Z M2.24800381,10.2054576 L2.05806027,8.72634065 L13.3296702,8.72634065 L13.139539,10.2054576 L2.24800381,10.2054576 Z" id="形状"></path>
                    <path d="M12.3189252,0 C9.95688617,0 7.87766161,1.49899608 7.02191719,3.82021176 C6.9576675,3.9943447 7.03947183,4.19042156 7.20463227,4.25816168 C7.36979271,4.3259018 7.55576636,4.23965338 7.62001606,4.06552044 C8.37911939,2.00662907 10.2235618,0.676573905 12.3189252,0.676573905 C15.097693,0.676573905 17.3590562,3.06018023 17.3590562,5.98970473 C17.3588844,7.74714032 16.534839,9.39089274 15.1576374,10.380953 C15.0618245,10.4485643 15.007813,10.5652015 15.0161759,10.6864376 C15.0245388,10.8076738 15.0939886,10.9148441 15.1980719,10.9671277 C15.3021552,11.0194112 15.4248481,11.0087587 15.5194171,10.9392277 C17.0716208,9.82330179 18.0002051,7.97049168 18,5.98970473 C18,2.68705175 15.4514032,0 12.3189252,0 Z" id="路径"></path>
                    <path d="M15.4626009,7.95678168 C15.492733,7.98446214 15.5336574,8 15.5763318,8 C15.6186014,8.00014054 15.6591884,7.9848394 15.6891037,7.9574844 C16.531059,7.19514986 17.003385,6.15494369 17,5.07053057 C17,2.82603948 15.0063348,1 12.5558464,1 C11.1749905,0.996169368 9.87165094,1.58416646 9.03325739,2.58922248 C8.97929006,2.65345338 8.99238476,2.7455974 9.06250522,2.79503191 C9.13262569,2.84446641 9.23321872,2.83247157 9.28718606,2.76824067 C10.0649452,1.83499634 11.2746723,1.28893244 12.5564218,1.29252643 C14.8302725,1.29252643 16.6798859,2.9869626 16.6798859,5.06965217 C16.6830683,6.07583275 16.2448865,7.04101358 15.4637516,7.74842488 C15.433264,7.77583016 15.4159922,7.81325663 15.4157761,7.85238363 C15.41556,7.89151062 15.4324175,7.92909525 15.4626009,7.95678168 L15.4626009,7.95678168 Z" id="路径"></path>
                    <path d="M15.1097969,3.48922084 L15.3726985,3.03004229 C15.4875216,2.82966718 15.3585983,2.59912492 15.0847403,2.51511173 C14.8108824,2.43109853 14.4957941,2.52542849 14.380971,2.72580359 L14.1283491,3.16730697 L13.5172249,2.97927316 L13.7701039,2.53776979 C13.877219,2.33862141 13.7471975,2.11334766 13.4774129,2.03065666 C13.2076283,1.94796566 12.8969827,2.03817165 12.7781194,2.23371913 L12.5254974,2.6752225 L12.1716211,2.566727 C12.0401788,2.52640112 11.8922252,2.52593459 11.7603128,2.56543005 C11.6284004,2.6049255 11.5233366,2.68114719 11.4682372,2.77732486 L11,3.59658814 L11.7689165,4.28911664 L12.2523162,3.44522093 L14.2090442,4.04486073 L14.4629511,4.12270673 C14.833013,4.24659334 15.0020332,4.56293754 14.84492,4.83761337 C14.6878069,5.1122892 14.2612161,5.2462474 13.8808669,5.14034568 L12.1127702,4.59824422 L13.5860985,5.92501074 C13.7094541,5.98518156 13.8143063,6.06246345 13.8718722,6.16512991 C13.8759841,6.17246323 13.8741852,6.18036065 13.877783,6.18769397 L14.7803347,7 C14.8060338,6.96352144 14.8386717,6.92929929 14.8607729,6.89075236 C15.0495448,6.56360117 15.0515807,6.19478843 14.8664267,5.86653223 C14.8643707,5.86295959 14.8612868,5.85995104 14.8592309,5.85656644 C15.2922604,5.72663508 15.6643831,5.48783215 15.8589251,5.14805506 C16.2138294,4.52848368 15.8753726,3.82561332 15.1097969,3.48922084 Z" id="路径"></path>
                </g>
            </g>
        </g>
    </g>
</svg>