<?xml version="1.0" encoding="UTF-8"?>
<svg width="30px" height="30px" viewBox="0 0 30 30" version="1.1" xmlns="http://www.w3.org/2000/svg" xmlns:xlink="http://www.w3.org/1999/xlink">
    <title>safe-1 3</title>
    <defs>
        <circle id="path-1" cx="15" cy="15" r="15"></circle>
    </defs>
    <g id="页面-1" stroke="none" stroke-width="1" fill="none" fill-rule="evenodd">
        <g id="safe-1">
            <mask id="mask-2" fill="white">
                <use xlink:href="#path-1"></use>
            </mask>
            <use id="蒙版" fill="#1649FF" xlink:href="#path-1"></use>
            <path d="M7,8.41666913 C7,7.63426261 7.76111684,7 8.7,7 L22.3,7 C23.2389368,7 24,7.63426335 24,8.41666913 L24,22.5833087 C24,23.3657522 23.2389368,24 22.3,24 L8.7,24 C7.76111684,24 7,23.3657522 7,22.5833087 L7,8.41666913 Z M13.536,13.1933304 C13.474313,13.2555565 13.384,13.3022261 13.2650435,13.3333304 C13.150487,13.368913 13.0117043,13.3866696 12.8486957,13.3866696 C12.685687,13.3866696 12.5314783,13.3622522 12.386087,13.3133304 C12.2406957,13.2644435 12.1217391,13.1466696 12.0292174,12.96 L11.3749565,11.6133304 C11.3088696,11.4755565 11.2493913,11.3466696 11.1965217,11.2266696 C11.1436522,11.1022261 11.0863826,10.96 11.0246957,10.8 L10.9850435,10.8066696 C11.0026609,11.0466696 11.0114783,11.2911043 11.0114783,11.54 C11.0158783,11.7888957 11.018087,12.0333304 11.018087,12.2733304 L11.018087,13.3066696 C10.9696174,13.32 10.8947304,13.3333304 10.7933913,13.3466696 C10.6964696,13.36 10.5995304,13.3666696 10.5026087,13.3666696 C10.405687,13.3666696 10.3197739,13.36 10.2448696,13.3466696 C10.1699652,13.3333304 10.1082957,13.3066696 10.0598261,13.2666696 C10.0113565,13.2266696 9.97391304,13.1733304 9.94747826,13.1066696 C9.92104348,13.0355565 9.90782609,12.9444435 9.90782609,12.8333304 L9.90782609,9.5 C9.96951304,9.41110435 10.0642261,9.34444348 10.192,9.3 C10.3197739,9.25555652 10.4563478,9.23333043 10.6017391,9.23333043 C10.7647478,9.23333043 10.9189565,9.26 11.0643478,9.31333043 C11.2141391,9.36222609 11.3330957,9.47777391 11.4212174,9.66 L12.082087,11.0066696 C12.1481739,11.1444435 12.2076522,11.2755565 12.2605217,11.4 C12.3133913,11.52 12.3706609,11.66 12.4323478,11.82 L12.4653913,11.8133304 C12.4477739,11.5733304 12.4367478,11.3333304 12.4323478,11.0933304 C12.4279478,10.8533304 12.4257391,10.6133304 12.4257391,10.3733304 L12.4257391,9.29333043 C12.4742087,9.28 12.5469043,9.26666957 12.6438261,9.25333043 C12.7451652,9.24 12.8442957,9.23333043 12.9412174,9.23333043 C13.1350783,9.23333043 13.2826609,9.26889565 13.384,9.34 C13.4853391,9.40666957 13.536,9.54889565 13.536,9.76666957 L13.536,13.1933304 Z M17.0763478,9.29333043 C17.1071304,9.34222609 17.1336522,9.40889565 17.1556522,9.49333043 C17.182087,9.57333043 17.1953043,9.65777391 17.1953043,9.74666957 C17.1953043,9.92 17.157913,10.0444435 17.0829565,10.12 C17.0125217,10.1911043 16.9154783,10.2266696 16.7921739,10.2266696 L15.4043478,10.2266696 L15.4043478,10.98 L16.8516522,10.98 C16.8869565,11.0288957 16.9155652,11.0933304 16.9375652,11.1733304 C16.964,11.2533304 16.9772174,11.3377739 16.9772174,11.4266696 C16.9772174,11.5955565 16.9398261,11.7177739 16.8648696,11.7933304 C16.7944348,11.8644435 16.6974783,11.9 16.574087,11.9 L15.4175652,11.9 L15.4175652,13.3066696 C15.3690435,13.32 15.292,13.3333304 15.1862609,13.3466696 C15.0849565,13.36 14.9835652,13.3666696 14.8822609,13.3666696 C14.7809304,13.3666696 14.6906087,13.3577478 14.611313,13.34 C14.5364087,13.3266696 14.4725304,13.3 14.4196609,13.26 C14.3667913,13.22 14.3271391,13.1644435 14.3007043,13.0933304 C14.2742696,13.0222261 14.2610522,12.9288957 14.2610522,12.8133304 L14.2610522,9.91333043 C14.2610522,9.72222609 14.316113,9.57110435 14.4262696,9.46 C14.5364087,9.34889565 14.6862,9.29333043 14.8756522,9.29333043 L17.0763478,9.29333043 Z M17.5450435,10.2266696 C17.5141739,10.1777739 17.4855652,10.1111043 17.4591304,10.0266696 C17.4326957,9.94222609 17.4194783,9.85333043 17.4194783,9.76 C17.4194783,9.58666957 17.4569565,9.46222609 17.5318261,9.38666957 C17.6111304,9.31110435 17.7124348,9.27333043 17.8358261,9.27333043 L20.7172174,9.27333043 C20.748087,9.32222609 20.7766957,9.38889565 20.8031304,9.47333043 C20.8295652,9.55777391 20.8427826,9.64666957 20.8427826,9.74 C20.8427826,9.91333043 20.8031304,10.0377739 20.7238261,10.1133304 C20.6489565,10.1888957 20.5498261,10.2266696 20.4264348,10.2266696 L19.6928696,10.2266696 L19.6928696,13.3066696 C19.6444348,13.32 19.5673043,13.3333304 19.4615652,13.3466696 C19.3602609,13.36 19.2588696,13.3666696 19.1575652,13.3666696 C19.0562609,13.3666696 18.965913,13.3577478 18.8866087,13.34 C18.8117391,13.3266696 18.7478261,13.3 18.6949565,13.26 C18.642087,13.22 18.6024348,13.1644435 18.576,13.0933304 C18.5495652,13.0222261 18.5363478,12.9288957 18.5363478,12.8133304 L18.5363478,10.2266696 L17.5450435,10.2266696 Z M16.6898261,14.9058261 L18.0704348,16.2644348 C18.5452174,16.7286957 18.9218261,17.2807826 19.1783478,17.8886957 C19.4349565,18.4966957 19.5663478,19.1485217 19.5652246,19.8066087 L19.5652246,20.5544348 L18.803913,19.308 C18.5909565,18.9588696 18.3352174,18.6365217 18.0425217,18.3483478 L15.6138,15.9627826 C15.5900174,15.9395652 15.5711478,15.912 15.5582609,15.8816522 C15.5453739,15.8512174 15.5387391,15.8186957 15.5387391,15.7857391 C15.5387391,15.7528696 15.5453739,15.7202609 15.5582609,15.689913 C15.5711478,15.6594783 15.5900174,15.631913 15.6138,15.6087826 L16.332,14.9058261 C16.3795652,14.8593913 16.4438261,14.8333043 16.5109565,14.8333043 C16.578,14.8333043 16.6422609,14.8593913 16.6898261,14.9058261 Z M16.7466957,17.6708696 L16.0289565,16.9655652 L12.2047391,20.721913 C12.1571565,20.7686957 12.1304348,20.832087 12.1304348,20.8981739 C12.1304348,20.9642609 12.1571565,21.0276522 12.2047391,21.0744348 L12.5635826,21.4269565 C12.5871652,21.450087 12.6151478,21.4684348 12.6459565,21.4809565 C12.6767652,21.4935652 12.7097826,21.5 12.7431478,21.5 C12.7764957,21.5 12.809513,21.4935652 12.8403217,21.4809565 C12.8711304,21.4684348 12.8991217,21.450087 12.9226957,21.4269565 L16.7466957,17.6708696 Z M18.6337391,15.6092174 C18.6337391,15.4770435 18.5802609,15.3503478 18.4851304,15.2568696 C18.389913,15.1633043 18.2607826,15.1108696 18.1262609,15.1108696 C17.9916522,15.1108696 17.8626087,15.1633043 17.7673913,15.2568696 L17.6775652,15.3448696 L18.3955652,16.05 L18.4851304,15.9617391 C18.5802609,15.8682609 18.6337391,15.7414783 18.6337391,15.6092174 Z" id="形状" fill="#FFFFFF" mask="url(#mask-2)"></path>
        </g>
    </g>
</svg>