<?xml version="1.0" encoding="UTF-8"?>
<svg width="44px" height="44px" viewBox="0 0 44 44" version="1.1" xmlns="http://www.w3.org/2000/svg" xmlns:xlink="http://www.w3.org/1999/xlink">
    <title>discord-icon</title>
    <g id="页面-1" stroke="none" stroke-width="1" fill="none" fill-rule="evenodd">
        <g id="discord-icon" fill-rule="nonzero">
            <circle id="椭圆形" fill="#1649FF" cx="22" cy="22" r="22"></circle>
            <g id="推特" transform="translate(11.000000, 13.000000)" fill="#FFFFFF">
                <path d="M25,2.37573964 C24.0806393,2.76627219 23.0801586,3.04733728 22.0496335,3.15680473 C23.1132075,2.53254438 23.9214037,1.54733728 24.3029684,0.375739645 C23.3205144,0.952662722 22.2088691,1.37573964 21.0521572,1.59467456 C20.1147699,0.609467456 18.7838,0 17.3086168,0 C14.4694147,0 12.1860353,2.26627219 12.1860353,5.04733728 C12.1860353,5.43786982 12.2341065,5.82840237 12.3122221,6.20414201 C8.06093018,5.9852071 4.26931859,3.9852071 1.74858791,0.923076923 C1.30392982,1.67455621 1.0515563,2.53254438 1.0515563,3.4704142 C1.0515563,5.22189349 1.95589472,6.76627219 3.3349357,7.67455621 C2.49369066,7.64201183 1.70051676,7.40828402 1.01850739,7.03254438 L1.01850739,7.09467456 C1.01850739,9.54733728 2.77911309,11.5798817 5.12558587,12.0473373 C4.69595001,12.1568047 4.23626968,12.2189349 3.77658935,12.2189349 C3.44309578,12.2189349 3.12762889,12.1863905 2.80915755,12.1420118 C3.45811801,14.1420118 5.34791491,15.5946746 7.5982454,15.6420118 C5.83763971,17 3.63237592,17.7988166 1.23783199,17.7988166 C0.80819613,17.7988166 0.411609182,17.7840237 0,17.7366864 C2.27136162,19.1715976 4.9663502,20 7.8686456,20 C17.2905901,20 22.4462204,12.3136095 22.4462204,5.64201183 C22.4462204,5.42307692 22.4462204,5.20414201 22.4311982,4.9852071 C23.4286744,4.26627219 24.3029684,3.37573964 25,2.37573964 Z" id="路径"></path>
            </g>
        </g>
    </g>
</svg>